<svg width="26" height="33" viewBox="0 0 26 33" fill="none" xmlns="http://www.w3.org/2000/svg">
<path fill-rule="evenodd" clip-rule="evenodd" d="M7.22222 7.33333C7.22222 5.38841 7.83095 3.52315 8.91449 2.14788C9.99804 0.772617 11.4676 0 13 0C14.5324 0 16.002 0.772617 17.0855 2.14788C18.169 3.52315 18.7778 5.38841 18.7778 7.33333C18.7778 9.27825 18.169 11.1435 17.0855 12.5188C16.002 13.8941 14.5324 14.6667 13 14.6667C11.4676 14.6667 9.99804 13.8941 8.91449 12.5188C7.83095 11.1435 7.22222 9.27825 7.22222 7.33333ZM7.22222 18.3333C5.30677 18.3333 3.46977 19.2991 2.11534 21.0182C0.76091 22.7373 0 25.0688 0 27.5C0 28.9587 0.456546 30.3576 1.2692 31.3891C2.08186 32.4205 3.18406 33 4.33333 33H21.6667C22.8159 33 23.9181 32.4205 24.7308 31.3891C25.5435 30.3576 26 28.9587 26 27.5C26 25.0688 25.2391 22.7373 23.8847 21.0182C22.5302 19.2991 20.6932 18.3333 18.7778 18.3333H7.22222Z" fill="white"/>
</svg>
